<svg xmlns="http://www.w3.org/2000/svg" xmlns:xlink="http://www.w3.org/1999/xlink" width="1371" height="498" viewBox="0 0 1371 498">
  <defs>
    <clipPath id="clip-Web_1920_1">
      <rect width="1371" height="498"/>
    </clipPath>
  </defs>
  <g id="Web_1920_1" data-name="Web 1920 – 1" clip-path="url(#clip-Web_1920_1)">
    <g id="history_toggle_off_black_24dp" transform="translate(0 -24.71)">
      <rect id="Rectangle_1" data-name="Rectangle 1" width="553" height="531" transform="translate(0 -0.29)" fill="none"/>
      <path id="Path_1" data-name="Path 1" d="M315.569,398.7l24.024,39.848a245.025,245.025,0,0,1-74.476,19.237V411.526A193.425,193.425,0,0,0,315.569,398.7ZM50.579,252.82H2.05a215.135,215.135,0,0,0,20.181,70.994l41.8-22.9A170.926,170.926,0,0,1,50.579,252.82ZM315.569,61.135l24.024-39.848A243.229,243.229,0,0,0,265.118,2.05V48.311A193.425,193.425,0,0,1,315.569,61.135ZM431.608,207.017h48.529a215.135,215.135,0,0,0-20.181-70.994l-41.8,22.9A170.926,170.926,0,0,1,431.608,207.017ZM166.618,398.7,142.593,438.55a245.025,245.025,0,0,0,74.476,19.237V411.526A193.424,193.424,0,0,1,166.618,398.7ZM217.069,48.311V2.05a243.229,243.229,0,0,0-74.476,19.237l24.024,39.848A193.424,193.424,0,0,1,217.069,48.311ZM393.889,119.3l41.8-23.13a239.3,239.3,0,0,0-54.536-51.986L356.891,84.037A188.492,188.492,0,0,1,393.889,119.3ZM64.033,158.924l-41.8-22.9A215.135,215.135,0,0,0,2.05,207.017H50.579A170.927,170.927,0,0,1,64.033,158.924Zm367.574,93.9a170.926,170.926,0,0,1-13.454,48.093l41.8,22.9a216.716,216.716,0,0,0,20.181-70.994ZM357.132,375.571,381.4,415.419a239.3,239.3,0,0,0,54.536-51.986l-41.8-23.13A188.5,188.5,0,0,1,357.132,375.571ZM125.055,84.266,101.031,44.188A235.422,235.422,0,0,0,46.5,96.4l41.8,23.13A180.83,180.83,0,0,1,125.055,84.266ZM88.3,340.532l-41.8,22.9a239.3,239.3,0,0,0,54.536,51.986L125.3,375.571A180.991,180.991,0,0,1,88.3,340.532Zm176.82-225.12H217.069v123.9l103.065,98.247,33.875-32.291-88.891-84.735Z" transform="translate(35.436 35.436)" fill="#a1a1a1"/>
    </g>
    <text id="coming_soon" data-name="coming
soon" transform="translate(576 189)" fill="#a1a1a1" font-size="220" font-family="Arial-BoldMT, Arial" font-weight="700"><tspan x="0" y="0">coming</tspan><tspan x="0" y="253">soon</tspan></text>
  </g>
</svg>
