<?xml version="1.0" encoding="utf-8"?>
<!-- Generator: Adobe Illustrator 27.2.0, SVG Export Plug-In . SVG Version: 6.00 Build 0)  -->
<svg version="1.1" id="Layer_1" xmlns="http://www.w3.org/2000/svg" xmlns:xlink="http://www.w3.org/1999/xlink" x="0px" y="0px"
	 viewBox="0 0 1023.4 131.6" style="enable-background:new 0 0 1023.4 131.6;" xml:space="preserve">
<style type="text/css">
	.st0{fill:url(#SVGID_1_);}
	.st1{fill:#88AB4D;}
	.st2{fill:url(#SVGID_00000160154692240732380440000009895107837484495756_);}
	.st3{fill:#454A50;}
	.st4{fill:#E6E7E8;}
	.st5{opacity:6.000000e-02;fill:#0F0F0F;enable-background:new    ;}
	.st6{fill:#8BC66F;}
	.st7{fill:#F4DB6E;}
	.st8{fill:#E16377;}
	.st9{fill:#00AEEF;stroke:#414042;stroke-width:0.402;stroke-miterlimit:10;}
	.st10{fill:#00A651;stroke:#414042;stroke-width:0.402;stroke-miterlimit:10;}
	.st11{fill:#FFF200;stroke:#414042;stroke-width:0.402;stroke-miterlimit:10;}
	.st12{fill:none;stroke:#6D6E71;stroke-width:1.0876;stroke-miterlimit:10;}
	.st13{fill:none;stroke:#414042;stroke-width:0.2837;stroke-miterlimit:10;}
	.st14{fill:none;stroke:#6D6E71;stroke-width:1.6315;stroke-miterlimit:10;}
	.st15{fill:#414042;}
	.st16{fill:none;stroke:#39B54A;stroke-width:1.1822;stroke-miterlimit:10;}
	.st17{fill:none;stroke:#1C75BC;stroke-width:1.1822;stroke-miterlimit:10;}
	.st18{fill:none;stroke:#662D91;stroke-width:1.1822;stroke-miterlimit:10;}
	.st19{fill:none;stroke:#BE1E2D;stroke-width:1.1822;stroke-miterlimit:10;}
	.st20{fill:none;stroke:#F7941D;stroke-width:1.1822;stroke-miterlimit:10;}
	.st21{fill:none;stroke:#BE1E2D;stroke-width:1.0876;stroke-miterlimit:10;}
	.st22{fill:#00A651;}
</style>
<symbol  id="Button_4_-_Green" viewBox="-72.5 -16.5 145 33">
	<g>
		<g>
			<linearGradient id="SVGID_1_" gradientUnits="userSpaceOnUse" x1="0" y1="14.73" x2="1.900040e-15" y2="-16.3">
				<stop  offset="0" style="stop-color:#EDED95"/>
				<stop  offset="1" style="stop-color:#A8D058"/>
			</linearGradient>
			<path class="st0" d="M-56,16c-8.8,0-16-7.2-16-16s7.2-16,16-16H56c8.8,0,16,7.2,16,16s-7.2,16-16,16H-56z"/>
			<path class="st1" d="M56-15.5c8.6,0,15.5,6.9,15.5,15.5S64.6,15.5,56,15.5H-56c-8.6,0-15.5-7-15.5-15.5s6.9-15.5,15.5-15.5H56
				 M56-16.5H-56c-9.1,0-16.5,7.4-16.5,16.5s7.4,16.5,16.5,16.5H56c9.1,0,16.5-7.4,16.5-16.5S65.1-16.5,56-16.5L56-16.5L56-16.5z"/>
		</g>
		<g>
			
				<linearGradient id="SVGID_00000088103362482923913900000007978113281670238354_" gradientUnits="userSpaceOnUse" x1="-6.675720e-06" y1="-17.97" x2="-6.675720e-06" y2="5.03">
				<stop  offset="0" style="stop-color:#FEFAD6"/>
				<stop  offset="1" style="stop-color:#000000"/>
			</linearGradient>
			<path style="fill:url(#SVGID_00000088103362482923913900000007978113281670238354_);" d="M65.6-6.1c0,4.3-4.5,7.9-10,7.9H-55.6
				c-5.5,0-10-3.5-10-7.9s4.5-7.9,10-7.9H55.6C61.1-13.9,65.6-10.4,65.6-6.1z"/>
		</g>
	</g>
</symbol>
<g>
	<g>
		<path class="st3" d="M143.9,15.8l0,111.6l-138.6,0V29.3h0V16.7h0.1c-0.1-0.3-0.1-0.6-0.1-1c0-2.4,1.9-4.4,4.4-4.4l130,0
			C142,11.4,143.9,13.4,143.9,15.8L143.9,15.8z"/>
		<rect x="7.7" y="28.6" class="st4" width="133.7" height="95.9"/>
		<rect x="7.7" y="28.6" class="st5" width="133.7" height="5.7"/>
	</g>
	<g>
		<ellipse class="st6" cx="37.3" cy="20.1" rx="3.3" ry="3.5"/>
		<ellipse class="st7" cx="25.3" cy="20.1" rx="3.3" ry="3.5"/>
		<ellipse class="st8" cx="13.4" cy="20.1" rx="3.3" ry="3.5"/>
	</g>
	<g>
		<path class="st9" d="M42.2,64.7L42.2,64.7H14.8H14V41l28.2,0.1"/>
		<polyline class="st10" points="42.2,64.6 32.6,54 26.1,61.1 22.1,56.5 14.8,64.6 42.2,64.7 42.2,64.7 		"/>
		<ellipse class="st11" cx="19.8" cy="45.5" rx="3.8" ry="3.1"/>
	</g>
	<g>
		<defs>
			<rect id="SVGID_00000058589094465894074760000013387627032212203442_" x="31.8" y="112.9" width="24" height="5.5"/>
		</defs>
		<clipPath id="SVGID_00000006710040403028190980000001730323548460424349_">
			<use xlink:href="#SVGID_00000058589094465894074760000013387627032212203442_"  style="overflow:visible;"/>
		</clipPath>
		
			<g transform="matrix(1 -2.910383e-11 2.910383e-11 1 0 0)" style="clip-path:url(#SVGID_00000006710040403028190980000001730323548460424349_);">
			
				<use xlink:href="#Button_4_-_Green"  width="145" height="33" x="-72.5" y="-16.5" transform="matrix(0.1655 5.777433e-05 -5.777433e-05 0.1655 43.7658 115.6614)" style="overflow:visible;"/>
		</g>
	</g>
	<g>
		<line class="st12" x1="53.6" y1="52.8" x2="44.7" y2="52.8"/>
		<line class="st12" x1="62.8" y1="52.8" x2="54.8" y2="52.8"/>
	</g>
	<g>
		<line class="st12" x1="51.3" y1="47.7" x2="44.7" y2="47.7"/>
		<line class="st12" x1="59" y1="47.7" x2="52.5" y2="47.7"/>
	</g>
	<g>
		<line class="st12" x1="49.1" y1="50.3" x2="44.7" y2="50.3"/>
		<line class="st12" x1="55.8" y1="50.3" x2="50.4" y2="50.3"/>
		<line class="st12" x1="61.5" y1="50.3" x2="57.2" y2="50.3"/>
	</g>
	<g>
		<line class="st12" x1="49.1" y1="55.4" x2="44.8" y2="55.4"/>
		<line class="st12" x1="56.3" y1="55.4" x2="49.9" y2="55.4"/>
		<line class="st12" x1="63.6" y1="55.4" x2="58" y2="55.4"/>
	</g>
	<polyline class="st13" points="42.2,40.9 42.2,64.7 42.2,64.8 	"/>
	<g>
		<g>
			<line class="st14" x1="32.1" y1="90.6" x2="14.2" y2="90.6"/>
			<g>
				<line class="st14" x1="30.2" y1="84.6" x2="25.3" y2="84.6"/>
				<line class="st14" x1="36.4" y1="84.6" x2="31.6" y2="84.6"/>
				<line class="st14" x1="23.4" y1="84.6" x2="14.2" y2="84.6"/>
				<line class="st14" x1="38.8" y1="90.6" x2="34" y2="90.6"/>
				<line class="st14" x1="19" y1="102.8" x2="14.2" y2="102.8"/>
				<line class="st14" x1="27" y1="102.8" x2="20.4" y2="102.8"/>
			</g>
			<line class="st14" x1="21.7" y1="90.6" x2="14.2" y2="90.6"/>
			<line class="st14" x1="26.8" y1="79.1" x2="22" y2="79.1"/>
			<line class="st14" x1="37.9" y1="79.1" x2="30.3" y2="79.1"/>
			<line class="st14" x1="19" y1="79.1" x2="14.2" y2="79.1"/>
			<g>
				<line class="st14" x1="38.6" y1="73.4" x2="20.7" y2="73.4"/>
				<line class="st14" x1="19" y1="73.4" x2="14.2" y2="73.4"/>
			</g>
			<g>
				<line class="st14" x1="26.8" y1="96.7" x2="22" y2="96.7"/>
				<line class="st14" x1="37.9" y1="96.7" x2="30.3" y2="96.7"/>
				<line class="st14" x1="19" y1="96.7" x2="14.2" y2="96.7"/>
			</g>
		</g>
		<g>
			<line class="st14" x1="65.2" y1="85.5" x2="47.3" y2="85.5"/>
			<g>
				<line class="st14" x1="63.3" y1="91.5" x2="58.5" y2="91.5"/>
				<line class="st14" x1="69.5" y1="91.5" x2="64.7" y2="91.5"/>
				<line class="st14" x1="56.5" y1="91.5" x2="47.3" y2="91.5"/>
				<line class="st14" x1="71.9" y1="85.5" x2="67.1" y2="85.5"/>
				<line class="st14" x1="52.2" y1="73.4" x2="47.3" y2="73.4"/>
				<line class="st14" x1="60.2" y1="73.4" x2="53.6" y2="73.4"/>
			</g>
			<line class="st14" x1="54.9" y1="85.5" x2="47.3" y2="85.5"/>
			<line class="st14" x1="60" y1="97.1" x2="55.1" y2="97.1"/>
			<line class="st14" x1="71" y1="97.1" x2="63.5" y2="97.1"/>
			<line class="st14" x1="52.2" y1="97.1" x2="47.3" y2="97.1"/>
			<g>
				<line class="st14" x1="71.7" y1="102.8" x2="53.9" y2="102.8"/>
				<line class="st14" x1="52.1" y1="102.8" x2="47.3" y2="102.8"/>
			</g>
			<g>
				<line class="st14" x1="60" y1="79.4" x2="55.2" y2="79.4"/>
				<line class="st14" x1="71" y1="79.4" x2="63.5" y2="79.4"/>
				<line class="st14" x1="52.2" y1="79.4" x2="47.3" y2="79.4"/>
			</g>
		</g>
	</g>
</g>
<g>
	<path class="st3" d="M144.5,15.8l0,111.6l-105.9,0l2.1-2.9l47.6-65.3L101.6,41l4.8-6.6l4.2-5.7l12.5-17.2h17.1
		C142.6,11.4,144.5,13.4,144.5,15.8z"/>
	<polygon class="st15" points="142,28.6 141.9,124.5 40.7,124.5 88.3,59.2 101.6,41 106.4,34.3 110.6,28.6 	"/>
	<polygon class="st5" points="142,28.6 142,34.3 106.4,34.3 110.6,28.6 	"/>
</g>
<g>
	<g>
		<line class="st16" x1="137.8" y1="68.4" x2="119.3" y2="68.4"/>
		<line class="st17" x1="115.5" y1="68.4" x2="97" y2="68.4"/>
		<line class="st18" x1="92.2" y1="68.4" x2="81.7" y2="68.4"/>
	</g>
	<g>
		<line class="st18" x1="117.8" y1="59.3" x2="99.3" y2="59.3"/>
		<line class="st19" x1="92.2" y1="59.2" x2="88.3" y2="59.2"/>
		<line class="st20" x1="137.8" y1="59.3" x2="124.4" y2="59.3"/>
	</g>
	<g>
		<line class="st19" x1="137.8" y1="86.7" x2="119.3" y2="86.7"/>
		<line class="st20" x1="116.7" y1="86.7" x2="106.2" y2="86.7"/>
		<line class="st16" x1="103.9" y1="86.7" x2="90.5" y2="86.7"/>
	</g>
	<g>
		<line class="st20" x1="119.6" y1="50.1" x2="101.1" y2="50.1"/>
		<line class="st17" x1="137.8" y1="50.1" x2="124.4" y2="50.1"/>
	</g>
	<g>
		<line class="st17" x1="137.8" y1="77.5" x2="127.3" y2="77.5"/>
		<line class="st19" x1="100.4" y1="77.5" x2="87" y2="77.5"/>
		<line class="st18" x1="119.3" y1="77.5" x2="105.8" y2="77.5"/>
	</g>
	<g>
		<line class="st17" x1="137.8" y1="102.1" x2="127.2" y2="102.1"/>
		<line class="st19" x1="103.1" y1="102.2" x2="87" y2="102.1"/>
		<line class="st18" x1="119.3" y1="102.1" x2="105.8" y2="102.1"/>
	</g>
	<g>
		<line class="st16" x1="137.8" y1="95.8" x2="119.3" y2="95.8"/>
		<line class="st17" x1="115.5" y1="95.8" x2="97" y2="95.8"/>
		<line class="st18" x1="92.2" y1="95.8" x2="81.7" y2="95.8"/>
	</g>
	<g>
		<line class="st18" x1="117.9" y1="41" x2="101.6" y2="41"/>
		<line class="st20" x1="137.8" y1="41" x2="124.4" y2="41"/>
	</g>
	<g>
		<line class="st20" x1="119.6" y1="112.2" x2="101.1" y2="112.2"/>
		<line class="st16" x1="98.3" y1="112.2" x2="83.8" y2="112.2"/>
		<line class="st17" x1="137.8" y1="112.2" x2="124.3" y2="112.2"/>
	</g>
</g>
<line class="st21" x1="85.5" y1="86.7" x2="75.3" y2="86.7"/>
<line class="st20" x1="78.3" y1="95.8" x2="64.9" y2="95.8"/>
<line class="st20" x1="77.6" y1="112.2" x2="67.1" y2="112.2"/>
<line class="st16" x1="83.8" y1="102.1" x2="65.3" y2="102.1"/>
<g>
	<g>
		<path class="st22" d="M160.7,27.6h12.8l11.8,40.8c2.6,9,4.5,16.7,7.2,25.6h0.5c2.7-9,4.7-16.6,7.2-25.6l11.7-40.8h12.3L199.7,106
			h-14.2L160.7,27.6z"/>
		<path class="st22" d="M259,57h-26.2v-9.5h38.1V106H259V57z M255.1,27.5c0-5,3.8-8.5,8.9-8.5c5.1,0,8.9,3.5,8.9,8.5
			c0,5.1-3.8,8.5-8.9,8.5C258.9,36,255.1,32.7,255.1,27.5z"/>
		<path class="st22" d="M281.7,47.5h12.1l12.4,31.7c2.2,5.9,4.2,11.7,6.2,17.5h0.5c2-5.8,3.8-11.6,6.1-17.5l12.4-31.7h11.5
			L319.2,106h-13.5L281.7,47.5z"/>
		<path class="st22" d="M378.8,57h-26.2v-9.5h38.1V106h-11.9V57z M374.9,27.5c0-5,3.8-8.5,8.9-8.5c5.1,0,8.9,3.5,8.9,8.5
			c0,5.1-3.8,8.5-8.9,8.5C378.7,36,374.9,32.7,374.9,27.5z"/>
		<path class="st22" d="M405.1,90.5c0-13.1,11.9-19.6,41.5-21.8c-0.4-7.2-4.3-13-14.7-13c-7.1,0-14.1,3.2-19.8,6.6l-4.6-8
			c6.6-4.1,16.3-8.3,26.5-8.3c16.1,0,24.5,9.3,24.5,24.7V106h-9.9l-1-7.6h-0.4c-6.3,4.9-14.4,9-22.4,9
			C413.7,107.4,405.1,100.9,405.1,90.5z M446.5,90.1V76.4c-23,1.6-29.8,6.3-29.8,13.3c0,5.9,5.3,8.3,11.5,8.3
			C434.5,98,440.5,95,446.5,90.1z"/>
		<path class="st22" d="M472.5,47.5h9.8l1,9.3h0.5c5.9-6,12.5-10.8,21.6-10.8c13.7,0,19.9,8.4,19.9,23.7V106h-11.9V71.3
			c0-10.2-3.4-14.9-12.1-14.9c-6.4,0-10.7,3.1-16.7,9.3V106h-11.9V47.5z"/>
		<path class="st22" d="M535.6,76.6c0-19.1,14.4-30.6,30-30.6c17.2,0,26.9,11.3,26.9,27.6c0,2.5-0.3,4.9-0.5,6.5h-48.2v-8.7h40.7
			l-2.6,2.9c0-12.7-6.1-19-16.1-19c-10.2,0-18.6,7.6-18.6,21.4c0,14.4,9,21.5,21.6,21.5c6.5,0,11.8-2,17.1-5.2l4.2,7.5
			c-6,4-13.8,6.9-22.8,6.9C549.6,107.4,535.6,96.1,535.6,76.6z"/>
		<path class="st22" d="M624.1,76.2V27.6h12.1v49.3c0,14.4,6.1,20.1,15,20.1c8.9,0,15.2-5.7,15.2-20.1V27.6h11.6v48.6
			c0,21.9-10.5,31.2-26.8,31.2C634.8,107.4,624.1,98.1,624.1,76.2z"/>
		<path class="st22" d="M697.4,47.5h9.9l1.1,13.6h0.3c6-9.5,15.1-15,25.5-15c4.5,0,7.9,0.7,11.5,2.4L743,58.6
			c-4-1.3-6.2-1.9-10.7-1.9c-8.4,0-16.5,4.3-23,16.1V106h-11.9V47.5z"/>
		<path class="st22" d="M762.2,99.5h-0.4l-1.1,6.5h-9.4V21.1h11.9v22.5l-0.5,10.8h0.4c5-5.1,12.1-8.3,18.7-8.3
			c15.5,0,24.1,11.7,24.1,29.7c0,20-12.5,31.7-26.1,31.7C774.1,107.4,767.5,104.5,762.2,99.5z M793.7,75.9c0-12.3-4.5-19.9-15-19.9
			c-4.8,0-10.1,2.4-15.4,7.8v27.7c4.9,4.4,10.4,6,14.3,6C786.7,97.5,793.7,89.8,793.7,75.9z"/>
		<path class="st22" d="M815.7,90.5c0-13.1,11.9-19.6,41.5-21.8c-0.4-7.2-4.3-13-14.7-13c-7.1,0-14.1,3.2-19.8,6.6l-4.6-8
			c6.6-4.1,16.3-8.3,26.5-8.3c16.1,0,24.5,9.3,24.5,24.7V106h-9.9l-1-7.6h-0.4c-6.3,4.9-14.4,9-22.4,9
			C824.3,107.4,815.7,100.9,815.7,90.5z M857.2,90.1V76.4c-23,1.6-29.8,6.3-29.8,13.3c0,5.9,5.3,8.3,11.5,8.3
			C845.1,98,851.1,95,857.2,90.1z"/>
		<path class="st22" d="M883.1,47.5h9.8l1,9.3h0.5c5.9-6,12.5-10.8,21.6-10.8c13.7,0,19.9,8.4,19.9,23.7V106h-11.9V71.3
			c0-10.2-3.4-14.9-12.1-14.9c-6.4,0-10.7,3.1-16.7,9.3V106h-11.9V47.5z"/>
		<path class="st22" d="M945.2,76.8c0-19.6,13.7-30.8,29.2-30.8c15.4,0,29.2,11.2,29.2,30.8c0,19.4-13.7,30.6-29.2,30.6
			C959,107.4,945.2,96.2,945.2,76.8z M991.3,76.8c0-12.6-6.6-21-16.9-21c-10.4,0-16.9,8.4-16.9,21c0,12.5,6.6,20.8,16.9,20.8
			C984.7,97.6,991.3,89.3,991.3,76.8z"/>
	</g>
</g>
</svg>
